<mxfile host="app.diagrams.net" agent="Mozilla/5.0 (Windows NT 10.0; Win64; x64; rv:127.0) Gecko/20100101 Firefox/127.0" version="25.0.3">
  <diagram name="Strona-1" id="kL2ln0JJUrPdT32ZbHL4">
    <mxGraphModel dx="1646" dy="734" grid="1" gridSize="10" guides="1" tooltips="1" connect="1" arrows="1" fold="1" page="1" pageScale="1" pageWidth="827" pageHeight="1169" math="0" shadow="0">
      <root>
        <mxCell id="0" />
        <mxCell id="1" parent="0" />
        <mxCell id="hk9rGY5APnESubTrVHEf-1" value="a&lt;i&gt;bstract Message&lt;/i&gt;" style="swimlane;fontStyle=1;align=center;verticalAlign=top;childLayout=stackLayout;horizontal=1;startSize=26;horizontalStack=0;resizeParent=1;resizeParentMax=0;resizeLast=0;collapsible=1;marginBottom=0;whiteSpace=wrap;html=1;" vertex="1" parent="1">
          <mxGeometry x="310" y="10" width="210" height="170" as="geometry" />
        </mxCell>
        <mxCell id="hk9rGY5APnESubTrVHEf-2" value="- text: String" style="text;strokeColor=none;fillColor=none;align=left;verticalAlign=top;spacingLeft=4;spacingRight=4;overflow=hidden;rotatable=0;points=[[0,0.5],[1,0.5]];portConstraint=eastwest;whiteSpace=wrap;html=1;" vertex="1" parent="hk9rGY5APnESubTrVHEf-1">
          <mxGeometry y="26" width="210" height="26" as="geometry" />
        </mxCell>
        <mxCell id="hk9rGY5APnESubTrVHEf-3" value="" style="line;strokeWidth=1;fillColor=none;align=left;verticalAlign=middle;spacingTop=-1;spacingLeft=3;spacingRight=3;rotatable=0;labelPosition=right;points=[];portConstraint=eastwest;strokeColor=inherit;" vertex="1" parent="hk9rGY5APnESubTrVHEf-1">
          <mxGeometry y="52" width="210" height="8" as="geometry" />
        </mxCell>
        <mxCell id="hk9rGY5APnESubTrVHEf-4" value="&lt;div&gt;+ Message()&lt;br&gt;&lt;/div&gt;&lt;div&gt;+ Message(String text)&lt;/div&gt;&lt;div&gt;+ getText(): String&lt;/div&gt;&lt;div&gt;+ setText(): void&lt;/div&gt;&lt;div&gt;+ charNumber(): int&lt;br&gt;&lt;/div&gt;&lt;div&gt;&lt;i&gt;+ abstract send(): void&lt;/i&gt;&lt;br&gt;&lt;/div&gt;&lt;div&gt;&lt;br&gt;&lt;/div&gt;&lt;div&gt;&lt;br&gt;&lt;/div&gt;&lt;div&gt;&lt;br&gt;&lt;/div&gt;" style="text;strokeColor=none;fillColor=none;align=left;verticalAlign=top;spacingLeft=4;spacingRight=4;overflow=hidden;rotatable=0;points=[[0,0.5],[1,0.5]];portConstraint=eastwest;whiteSpace=wrap;html=1;" vertex="1" parent="hk9rGY5APnESubTrVHEf-1">
          <mxGeometry y="60" width="210" height="110" as="geometry" />
        </mxCell>
        <mxCell id="hk9rGY5APnESubTrVHEf-5" value="SMS" style="swimlane;fontStyle=1;align=center;verticalAlign=top;childLayout=stackLayout;horizontal=1;startSize=26;horizontalStack=0;resizeParent=1;resizeParentMax=0;resizeLast=0;collapsible=1;marginBottom=0;whiteSpace=wrap;html=1;" vertex="1" parent="1">
          <mxGeometry x="190" y="260" width="210" height="140" as="geometry" />
        </mxCell>
        <mxCell id="hk9rGY5APnESubTrVHEf-6" value="- myUser: User" style="text;strokeColor=none;fillColor=none;align=left;verticalAlign=top;spacingLeft=4;spacingRight=4;overflow=hidden;rotatable=0;points=[[0,0.5],[1,0.5]];portConstraint=eastwest;whiteSpace=wrap;html=1;" vertex="1" parent="hk9rGY5APnESubTrVHEf-5">
          <mxGeometry y="26" width="210" height="24" as="geometry" />
        </mxCell>
        <mxCell id="hk9rGY5APnESubTrVHEf-7" value="" style="line;strokeWidth=1;fillColor=none;align=left;verticalAlign=middle;spacingTop=-1;spacingLeft=3;spacingRight=3;rotatable=0;labelPosition=right;points=[];portConstraint=eastwest;strokeColor=inherit;" vertex="1" parent="hk9rGY5APnESubTrVHEf-5">
          <mxGeometry y="50" width="210" height="8" as="geometry" />
        </mxCell>
        <mxCell id="hk9rGY5APnESubTrVHEf-8" value="&lt;div&gt;+ SMS()&lt;/div&gt;&lt;div&gt;+ SMS(String text, User myUser)&lt;/div&gt;&lt;div&gt;+ getUser(): User&lt;/div&gt;&lt;div&gt;+ setUser(): void&lt;/div&gt;&lt;div&gt;+ send(): void&lt;br&gt;&lt;/div&gt;" style="text;strokeColor=none;fillColor=none;align=left;verticalAlign=top;spacingLeft=4;spacingRight=4;overflow=hidden;rotatable=0;points=[[0,0.5],[1,0.5]];portConstraint=eastwest;whiteSpace=wrap;html=1;" vertex="1" parent="hk9rGY5APnESubTrVHEf-5">
          <mxGeometry y="58" width="210" height="82" as="geometry" />
        </mxCell>
        <mxCell id="hk9rGY5APnESubTrVHEf-9" value="Email" style="swimlane;fontStyle=1;align=center;verticalAlign=top;childLayout=stackLayout;horizontal=1;startSize=26;horizontalStack=0;resizeParent=1;resizeParentMax=0;resizeLast=0;collapsible=1;marginBottom=0;whiteSpace=wrap;html=1;" vertex="1" parent="1">
          <mxGeometry x="430" y="260" width="330" height="190" as="geometry" />
        </mxCell>
        <mxCell id="hk9rGY5APnESubTrVHEf-10" value="&lt;div&gt;- messageSubject: String&lt;/div&gt;&lt;div&gt;- myUser: User&lt;/div&gt;&lt;div&gt;&lt;br&gt;&lt;/div&gt;" style="text;strokeColor=none;fillColor=none;align=left;verticalAlign=top;spacingLeft=4;spacingRight=4;overflow=hidden;rotatable=0;points=[[0,0.5],[1,0.5]];portConstraint=eastwest;whiteSpace=wrap;html=1;" vertex="1" parent="hk9rGY5APnESubTrVHEf-9">
          <mxGeometry y="26" width="330" height="44" as="geometry" />
        </mxCell>
        <mxCell id="hk9rGY5APnESubTrVHEf-11" value="" style="line;strokeWidth=1;fillColor=none;align=left;verticalAlign=middle;spacingTop=-1;spacingLeft=3;spacingRight=3;rotatable=0;labelPosition=right;points=[];portConstraint=eastwest;strokeColor=inherit;" vertex="1" parent="hk9rGY5APnESubTrVHEf-9">
          <mxGeometry y="70" width="330" height="8" as="geometry" />
        </mxCell>
        <mxCell id="hk9rGY5APnESubTrVHEf-12" value="&lt;div&gt;+ Email(String messageSubject, User myUser)&lt;/div&gt;&lt;div&gt;+ Email(String text, String messageSubject, User myUser)&lt;br&gt;&lt;/div&gt;&lt;div&gt;+ getMessageSubject(): String&lt;/div&gt;&lt;div&gt;+ setMessageSubject(): void&lt;/div&gt;&lt;div&gt;+ getMyUser(): User&lt;br&gt;&lt;/div&gt;&lt;div&gt;+ setMyUser(): void&lt;/div&gt;&lt;div&gt;+ send(): void&lt;br&gt;&lt;/div&gt;" style="text;strokeColor=none;fillColor=none;align=left;verticalAlign=top;spacingLeft=4;spacingRight=4;overflow=hidden;rotatable=0;points=[[0,0.5],[1,0.5]];portConstraint=eastwest;whiteSpace=wrap;html=1;" vertex="1" parent="hk9rGY5APnESubTrVHEf-9">
          <mxGeometry y="78" width="330" height="112" as="geometry" />
        </mxCell>
        <mxCell id="hk9rGY5APnESubTrVHEf-13" value="Main" style="swimlane;fontStyle=1;align=center;verticalAlign=top;childLayout=stackLayout;horizontal=1;startSize=26;horizontalStack=0;resizeParent=1;resizeParentMax=0;resizeLast=0;collapsible=1;marginBottom=0;whiteSpace=wrap;html=1;" vertex="1" parent="1">
          <mxGeometry x="70" y="455" width="190" height="130" as="geometry" />
        </mxCell>
        <mxCell id="hk9rGY5APnESubTrVHEf-14" value="+ static main(String[] args): void" style="text;strokeColor=none;fillColor=none;align=left;verticalAlign=top;spacingLeft=4;spacingRight=4;overflow=hidden;rotatable=0;points=[[0,0.5],[1,0.5]];portConstraint=eastwest;whiteSpace=wrap;html=1;" vertex="1" parent="hk9rGY5APnESubTrVHEf-13">
          <mxGeometry y="26" width="190" height="44" as="geometry" />
        </mxCell>
        <mxCell id="hk9rGY5APnESubTrVHEf-15" value="" style="line;strokeWidth=1;fillColor=none;align=left;verticalAlign=middle;spacingTop=-1;spacingLeft=3;spacingRight=3;rotatable=0;labelPosition=right;points=[];portConstraint=eastwest;strokeColor=inherit;" vertex="1" parent="hk9rGY5APnESubTrVHEf-13">
          <mxGeometry y="70" width="190" height="8" as="geometry" />
        </mxCell>
        <mxCell id="hk9rGY5APnESubTrVHEf-16" value="+ method(type): type" style="text;strokeColor=none;fillColor=none;align=left;verticalAlign=top;spacingLeft=4;spacingRight=4;overflow=hidden;rotatable=0;points=[[0,0.5],[1,0.5]];portConstraint=eastwest;whiteSpace=wrap;html=1;" vertex="1" parent="hk9rGY5APnESubTrVHEf-13">
          <mxGeometry y="78" width="190" height="52" as="geometry" />
        </mxCell>
        <mxCell id="hk9rGY5APnESubTrVHEf-18" value="Extends" style="endArrow=block;endSize=16;endFill=0;html=1;rounded=0;entryX=0.048;entryY=1;entryDx=0;entryDy=0;entryPerimeter=0;exitX=0.437;exitY=-0.013;exitDx=0;exitDy=0;exitPerimeter=0;" edge="1" parent="1" source="hk9rGY5APnESubTrVHEf-5" target="hk9rGY5APnESubTrVHEf-4">
          <mxGeometry width="160" relative="1" as="geometry">
            <mxPoint x="70" y="290" as="sourcePoint" />
            <mxPoint x="230" y="290" as="targetPoint" />
          </mxGeometry>
        </mxCell>
        <mxCell id="hk9rGY5APnESubTrVHEf-19" value="Extends" style="endArrow=block;endSize=16;endFill=0;html=1;rounded=0;entryX=0.965;entryY=1.03;entryDx=0;entryDy=0;entryPerimeter=0;" edge="1" parent="1" source="hk9rGY5APnESubTrVHEf-9" target="hk9rGY5APnESubTrVHEf-4">
          <mxGeometry width="160" relative="1" as="geometry">
            <mxPoint x="430" y="390" as="sourcePoint" />
            <mxPoint x="600" y="270" as="targetPoint" />
          </mxGeometry>
        </mxCell>
      </root>
    </mxGraphModel>
  </diagram>
</mxfile>
